<svg width="32" height="32" viewBox="0 0 32 32" fill="none" xmlns="http://www.w3.org/2000/svg">
<path d="M10.6666 17.3333C11.403 17.3333 11.9999 16.7364 11.9999 16C11.9999 15.2636 11.403 14.6667 10.6666 14.6667C9.93021 14.6667 9.33325 15.2636 9.33325 16C9.33325 16.7364 9.93021 17.3333 10.6666 17.3333Z" fill="#FDE047"/>
<path d="M17.3334 16C17.3334 16.7364 16.7364 17.3333 16 17.3333C15.2636 17.3333 14.6667 16.7364 14.6667 16C14.6667 15.2636 15.2636 14.6667 16 14.6667C16.7364 14.6667 17.3334 15.2636 17.3334 16Z" fill="#FDE047"/>
<path d="M21.3334 17.3333C22.0697 17.3333 22.6667 16.7364 22.6667 16C22.6667 15.2636 22.0697 14.6667 21.3334 14.6667C20.597 14.6667 20 15.2636 20 16C20 16.7364 20.597 17.3333 21.3334 17.3333Z" fill="#FDE047"/>
<path d="M11.9999 21.3333C11.9999 22.0697 11.403 22.6667 10.6666 22.6667C9.93021 22.6667 9.33325 22.0697 9.33325 21.3333C9.33325 20.5969 9.93021 20 10.6666 20C11.403 20 11.9999 20.5969 11.9999 21.3333Z" fill="#FDE047"/>
<path d="M16 22.6667C16.7364 22.6667 17.3334 22.0697 17.3334 21.3333C17.3334 20.5969 16.7364 20 16 20C15.2636 20 14.6667 20.5969 14.6667 21.3333C14.6667 22.0697 15.2636 22.6667 16 22.6667Z" fill="#FDE047"/>
<path fill-rule="evenodd" clip-rule="evenodd" d="M10.6668 4.00002C10.6668 3.26364 10.0698 2.66669 9.33341 2.66669C8.59703 2.66669 8.00008 3.26364 8.00008 4.00002H5.33341C3.86065 4.00002 2.66675 5.19393 2.66675 6.66669V25.3333C2.66675 26.8061 3.86066 28 5.33341 28H26.6668C28.1395 28 29.3335 26.8061 29.3335 25.3333V6.66669C29.3335 5.19393 28.1395 4.00002 26.6668 4.00002H24.0001C24.0001 3.26364 23.4032 2.66669 22.6668 2.66669C21.9304 2.66669 21.3335 3.26364 21.3335 4.00002H10.6668ZM5.33341 9.33335V6.66669H26.6668V9.33335H5.33341ZM5.33341 12V25.3333H18.8956L26.6668 17.5621V12H5.33341ZM26.6668 21.3334L22.6668 25.3333H26.6668V21.3334Z" fill="#FDE047"/>
</svg>
