<svg width="16" height="16" viewBox="0 0 16 16" fill="none" xmlns="http://www.w3.org/2000/svg">
<path d="M13.6569 15.5424C14.1776 16.0631 15.0218 16.0631 15.5425 15.5424C16.0632 15.0217 16.0632 14.1774 15.5425 13.6567L9.88571 7.9999L15.5425 2.34306C16.0632 1.82237 16.0632 0.978145 15.5425 0.457446C15.0218 -0.0632527 14.1776 -0.0632527 13.6569 0.457446L8.00009 6.11429L2.34322 0.457419C1.82252 -0.0632804 0.978302 -0.0632801 0.457603 0.457419C-0.0630958 0.978118 -0.0630963 1.82234 0.457603 2.34304L6.11447 7.9999L0.457602 13.6568C-0.0630974 14.1775 -0.063097 15.0217 0.457602 15.5424C0.978301 16.0631 1.82252 16.0631 2.34322 15.5424L8.00009 9.88552L13.6569 15.5424Z" fill="#1E202C"/>
</svg>
