<svg width="37" height="36" viewBox="0 0 37 36" fill="none" xmlns="http://www.w3.org/2000/svg">
<path d="M15 18.0011C19.7344 18.0011 23.5714 13.9712 23.5714 9.00053C23.5714 4.02984 19.7344 0 15 0C10.2656 0 6.42857 4.02984 6.42857 9.00053C6.42857 13.9712 10.2656 18.0011 15 18.0011ZM18.3951 21.3763H11.6049C5.1971 21.3763 0 26.8328 0 33.5621C0 34.908 1.03929 36 2.32098 36H27.6804C28.9621 36.0021 30 34.9122 30 33.5621C30 26.8328 24.8036 21.3763 18.3951 21.3763Z" fill="#D1D5DB"/>
<path d="M26 23.0008C29.4719 23.0008 32.2857 20.0903 32.2857 16.5004C32.2857 12.9104 29.4719 10 26 10C22.5281 10 19.7143 12.9104 19.7143 16.5004C19.7143 20.0903 22.5281 23.0008 26 23.0008ZM28.4897 25.4384H23.5103C18.8112 25.4384 15 29.3793 15 34.2393C15 35.2113 15.7621 36 16.7021 36H35.2989C36.2388 36.0015 37 35.2144 37 34.2393C37 29.3793 33.1893 25.4384 28.4897 25.4384Z" fill="#D1D5DB"/>
</svg>
