<svg width="18" height="16" viewBox="0 0 18 16" fill="none" xmlns="http://www.w3.org/2000/svg">
<g clip-path="url(#clip0_77_35)">
<path d="M0.417115 0.000244141L8.14073 5.41884L6.70446 2.22551L0.417115 0.000244141Z" fill="#E17726"/>
<path d="M17.5646 0.00634766L11.2941 2.22561L9.93027 5.46081L17.5646 0.00634766ZM3.52537 11.5238L0.111625 11.5854L1.30469 15.4282L5.47021 14.3408L3.52537 11.5238ZM14.4745 11.5238L12.5369 14.3408L16.6954 15.4283L17.8812 11.5854L14.4745 11.5238Z" fill="#E27625"/>
<path d="M10.1156 4.63678L9.97613 8.90898L14.1507 8.72891L12.9632 7.03038L12.9482 7.01404L10.1156 4.63678ZM7.92729 4.58911L5.05151 7.01418L5.0366 7.03044L3.84917 8.72898L8.02278 8.90898L7.92729 4.58911ZM12.4146 11.5362L10.1352 13.2202L12.783 14.4322L12.4146 11.5362ZM5.58469 11.536L5.22392 14.4323L7.86436 13.22L5.58469 11.536Z" fill="#E27625"/>
<path d="M7.80619 13.0615L5.12679 14.2917L7.61916 15.4147L7.59328 14.6725L7.80619 13.0615ZM10.1945 13.0621L10.399 14.6603L10.3822 15.4139L12.8804 14.2917L10.1945 13.0621Z" fill="#D5BFB2"/>
<path d="M10.9681 9.46655L10.2679 10.8618L12.6517 10.1996L10.9681 9.46655ZM7.03164 9.46669L5.34006 10.1996L7.73167 10.8616L7.03164 9.46669Z" fill="#233447"/>
<path d="M12.2324 11.5219L12.6177 14.5246L14.683 11.5876L12.2324 11.5219ZM5.76716 11.522L3.31649 11.5876L5.38951 14.5247L5.76716 11.522ZM3.78885 8.55908L5.57233 10.2825L6.94743 9.68668L7.60576 10.9989L8.03734 8.74235L3.78885 8.55908ZM14.2118 8.55908L9.96243 8.74235L10.3941 10.9989L11.0526 9.68688L12.4203 10.2825L14.2118 8.55908Z" fill="#CC6228"/>
<path d="M14.332 8.20562L12.3142 10.147L12.2443 12.0636L14.332 8.20562ZM3.66584 8.20215L5.75735 12.067L5.6786 10.147L3.66584 8.20215ZM10.0612 8.32388L9.97997 8.80855L9.7793 10.0159L9.90832 13.7243L10.5183 10.7453L10.5185 10.7145L10.0612 8.32388ZM7.93978 8.31715L7.48127 10.7145L7.48148 10.7453L8.09299 13.7317L8.11718 12.9847L8.21259 9.99395L7.93978 8.31715Z" fill="#E27525"/>
<path d="M5.49906 10.0701L5.56734 11.7353L7.69598 13.3077L8.12629 13.0195L7.64395 10.6638L5.49906 10.0701ZM12.4931 10.0701L10.3557 10.6638L9.87335 13.0195L10.3037 13.3077L12.4324 11.7351L12.4931 10.0701Z" fill="#F5841F"/>
<path d="M13.2877 13.9241L10.5644 15.1475L10.5759 14.6251L10.348 14.4354H7.65268L7.41657 14.6244L7.43401 15.1465L4.72789 13.9271L6.0447 14.9589L7.63693 15.9957H10.3699L11.9611 14.9546L13.2877 13.9241Z" fill="#C0AC9D"/>
<path d="M8.00114 12.8987L7.61611 13.1566L7.39047 14.8635L7.717 14.6021H10.2817L10.6021 14.8688L10.3838 13.1567L9.99864 12.8987H8.00114Z" fill="#161616"/>
<path d="M0.927004 0.150146L-0.000137329 2.78728L0.578886 5.45375L0.166574 5.75528L0.724503 6.15888L0.305159 6.46595L0.860417 6.94535L0.519543 7.17941L1.42418 8.18115L5.13457 7.15681L5.16671 7.14048L7.84048 5.00195L0.927004 0.150146ZM17.0727 0.150146L10.1592 5.00195L12.833 7.14048L12.8652 7.15681L16.5755 8.18115L17.4802 7.17941L17.1396 6.94555L17.6945 6.46595L17.276 6.15921L17.8423 5.75448L17.4144 5.45275L17.9999 2.78741L17.0727 0.150146Z" fill="#763E1A"/>
<path d="M5.31607 6.93272L1.38469 8.01799L0.107464 11.7504H3.47712L5.79884 11.7781L4.11036 8.65759L5.31607 6.93272ZM12.6837 6.93272L13.8896 8.65759L12.2009 11.7781L14.5216 11.7504H17.8852L16.6152 8.01805L12.6837 6.93272ZM6.51195 2.20752L7.61157 5.02345L7.84493 8.82745L7.93423 10.0198L7.94133 13.0657H10.0585L10.0654 10.0255L10.155 8.82645L10.3884 5.02345L11.4879 2.20752H6.51195Z" fill="#F5841F"/>
</g>
<defs>
<clipPath id="clip0_77_35">
<rect width="18" height="16" fill="white" transform="matrix(-1 0 0 1 18 0)"/>
</clipPath>
</defs>
</svg>
