<svg width="32" height="32" viewBox="0 0 32 32" fill="none" xmlns="http://www.w3.org/2000/svg">
<path d="M10.6667 17.3333C11.4031 17.3333 12 16.7364 12 16C12 15.2636 11.4031 14.6667 10.6667 14.6667C9.93031 14.6667 9.33335 15.2636 9.33335 16C9.33335 16.7364 9.93031 17.3333 10.6667 17.3333Z" fill="#D1D5DB"/>
<path d="M17.3334 16C17.3334 16.7364 16.7364 17.3333 16 17.3333C15.2636 17.3333 14.6667 16.7364 14.6667 16C14.6667 15.2636 15.2636 14.6667 16 14.6667C16.7364 14.6667 17.3334 15.2636 17.3334 16Z" fill="#D1D5DB"/>
<path d="M21.3334 17.3333C22.0697 17.3333 22.6667 16.7364 22.6667 16C22.6667 15.2636 22.0697 14.6667 21.3334 14.6667C20.597 14.6667 20 15.2636 20 16C20 16.7364 20.597 17.3333 21.3334 17.3333Z" fill="#D1D5DB"/>
<path d="M12 21.3333C12 22.0697 11.4031 22.6667 10.6667 22.6667C9.93031 22.6667 9.33335 22.0697 9.33335 21.3333C9.33335 20.5969 9.93031 20 10.6667 20C11.4031 20 12 20.5969 12 21.3333Z" fill="#D1D5DB"/>
<path d="M16 22.6667C16.7364 22.6667 17.3334 22.0697 17.3334 21.3333C17.3334 20.5969 16.7364 20 16 20C15.2636 20 14.6667 20.5969 14.6667 21.3333C14.6667 22.0697 15.2636 22.6667 16 22.6667Z" fill="#D1D5DB"/>
<path fill-rule="evenodd" clip-rule="evenodd" d="M10.6667 3.99999C10.6667 3.26361 10.0697 2.66666 9.33335 2.66666C8.59697 2.66666 8.00002 3.26361 8.00002 3.99999H5.33335C3.86059 3.99999 2.66669 5.1939 2.66669 6.66666V25.3333C2.66669 26.8061 3.8606 28 5.33335 28H26.6667C28.1394 28 29.3334 26.8061 29.3334 25.3333V6.66666C29.3334 5.1939 28.1394 3.99999 26.6667 3.99999H24C24 3.26361 23.4031 2.66666 22.6667 2.66666C21.9303 2.66666 21.3334 3.26361 21.3334 3.99999H10.6667ZM5.33335 9.33332V6.66666H26.6667V9.33332H5.33335ZM5.33335 12V25.3333H18.8955L26.6667 17.5621V12H5.33335ZM26.6667 21.3334L22.6667 25.3333H26.6667V21.3334Z" fill="#D1D5DB"/>
</svg>
