<svg width="38" height="30" viewBox="0 0 38 30" fill="none" xmlns="http://www.w3.org/2000/svg">
<path d="M0 9.09375C0 8.66602 0.127834 8.25 0.367413 7.89258L4.85391 1.25215C5.38234 0.469981 6.27 0 7.22594 0H30.7741C31.73 0 32.6147 0.469981 33.1431 1.25215L37.6319 7.89258C37.8694 8.25 38 8.66602 38 9.09375C38 10.2832 37.0203 11.25 35.815 11.25H2.18738C0.979688 11.25 1.78125e-05 10.2832 1.78125e-05 9.09375H0ZM3.8 13.125H7.6V22.5H19V13.125H22.8V27.1875C22.8 28.7402 21.5234 30 19.95 30H6.65C5.07597 30 3.8 28.7402 3.8 27.1875V13.125ZM30.4 13.125H34.2V28.125C34.2 29.1621 33.3509 30 32.3 30C31.2491 30 30.4 29.1621 30.4 28.125V13.125Z" fill="black"/>
</svg>
