<svg width="27" height="27" viewBox="0 0 27 27" fill="none" xmlns="http://www.w3.org/2000/svg">
<path d="M26.383 23.3957L20.0707 17.0841C21.5062 14.9533 22.2144 12.2911 21.8352 9.45425C21.1887 4.62904 17.2336 0.702329 12.4031 0.0908335C5.22119 -0.817841 -0.817974 5.22065 0.0908535 12.4018C0.702574 17.2338 4.63025 21.1917 9.45651 21.835C12.2936 22.214 14.9567 21.5061 17.0872 20.0707L23.3995 26.3823C24.2232 27.2059 25.559 27.2059 26.3827 26.3823C27.2057 25.5576 27.2057 24.2183 26.383 23.3957ZM4.17124 10.9676C4.17124 7.24597 7.19926 4.21828 10.9213 4.21828C14.6433 4.21828 17.6713 7.24597 17.6713 10.9676C17.6713 14.6892 14.6433 17.7168 10.9213 17.7168C7.19926 17.7168 4.17124 14.6902 4.17124 10.9676Z" fill="black"/>
</svg>
