<svg width="26" height="24" viewBox="0 0 26 24" fill="none" xmlns="http://www.w3.org/2000/svg">
<g clip-path="url(#clip0_397_3042)">
<path fill-rule="evenodd" clip-rule="evenodd" d="M15.6667 3C16.2189 3 16.6667 3.44772 16.6667 4C16.6667 4.55228 16.2189 5 15.6667 5H6.66666V18C6.66666 18.5523 7.11437 19 7.66666 19H15.6667C16.2189 19 16.6667 19.4477 16.6667 20C16.6667 20.5523 16.2189 21 15.6667 21H7.66666C6.0098 21 4.66666 19.6569 4.66666 18V4C4.66666 3.44772 5.11437 3 5.66666 3H15.6667ZM17.3738 8.29289C17.0878 8.0069 16.6576 7.92134 16.284 8.07612C15.9103 8.2309 15.6667 8.59554 15.6667 9V11H9.66666C9.11437 11 8.66666 11.4477 8.66666 12C8.66666 12.5523 9.11437 13 9.66666 13H15.6667V15C15.6667 15.4045 15.9103 15.7691 16.284 15.9239C16.6576 16.0787 17.0878 15.9931 17.3738 15.7071L20.3738 12.7071C20.7643 12.3166 20.7643 11.6834 20.3738 11.2929L17.3738 8.29289Z" fill="#292929"/>
</g>
<defs>
<clipPath id="clip0_397_3042">
<rect width="24.5" height="24" fill="white" transform="translate(0.666656)"/>
</clipPath>
</defs>
</svg>
